<svg xmlns="http://www.w3.org/2000/svg" viewBox="0 0 420 700" role="img" aria-labelledby="title desc">
<title id="title">Attention explained with decision trees</title><desc id="desc">Attention matrices from a trained speech recognizer are binned into ten levels. Previous states predict high or low attention using Silas decision trees; conditions and influence scores are analyzed.</desc>
<defs><marker id="arrow" viewBox="0 0 10 10" refX="9" refY="5" markerWidth="6" markerHeight="6" orient="auto-start-reverse"><path d="M 0 0 L 10 5 L 0 10 z" fill="#728497"/></marker></defs>
<rect width="420" height="700" fill="#f7f9fc"/>
<g font-family="Arial, Helvetica, sans-serif">
<text x="25" y="33" font-size="20" fill="#245895" text-anchor="start" font-weight="600">Attention &amp; decision trees</text>
<rect x="40" y="65" width="340" height="65" rx="8" fill="#eaf1fa" stroke="#b8c5d4" stroke-width="1.5"/>
<text x="210.0" y="103.8" font-size="18" fill="#245895" text-anchor="middle" font-weight="400">Trained TIMIT speech recognizer</text>
<path d="M210,130 L210,157" fill="none" stroke="#728497" stroke-width="2" marker-end="url(#arrow)"/>
<rect x="40" y="157" width="340" height="110" rx="8" fill="#fff" stroke="#b8c5d4" stroke-width="1.5"/>
<rect x="60" y="182" width="10" height="10" rx="1" fill="#9fb9dc" stroke="none" stroke-width="1.5"/>
<rect x="72" y="182" width="10" height="10" rx="1" fill="#245895" stroke="none" stroke-width="1.5"/>
<rect x="84" y="182" width="10" height="10" rx="1" fill="#9fb9dc" stroke="none" stroke-width="1.5"/>
<rect x="96" y="182" width="10" height="10" rx="1" fill="#e6ecf4" stroke="none" stroke-width="1.5"/>
<rect x="108" y="182" width="10" height="10" rx="1" fill="#e6ecf4" stroke="none" stroke-width="1.5"/>
<rect x="120" y="182" width="10" height="10" rx="1" fill="#e6ecf4" stroke="none" stroke-width="1.5"/>
<rect x="132" y="182" width="10" height="10" rx="1" fill="#e6ecf4" stroke="none" stroke-width="1.5"/>
<rect x="144" y="182" width="10" height="10" rx="1" fill="#e6ecf4" stroke="none" stroke-width="1.5"/>
<rect x="60" y="194" width="10" height="10" rx="1" fill="#e6ecf4" stroke="none" stroke-width="1.5"/>
<rect x="72" y="194" width="10" height="10" rx="1" fill="#9fb9dc" stroke="none" stroke-width="1.5"/>
<rect x="84" y="194" width="10" height="10" rx="1" fill="#245895" stroke="none" stroke-width="1.5"/>
<rect x="96" y="194" width="10" height="10" rx="1" fill="#9fb9dc" stroke="none" stroke-width="1.5"/>
<rect x="108" y="194" width="10" height="10" rx="1" fill="#e6ecf4" stroke="none" stroke-width="1.5"/>
<rect x="120" y="194" width="10" height="10" rx="1" fill="#e6ecf4" stroke="none" stroke-width="1.5"/>
<rect x="132" y="194" width="10" height="10" rx="1" fill="#e6ecf4" stroke="none" stroke-width="1.5"/>
<rect x="144" y="194" width="10" height="10" rx="1" fill="#e6ecf4" stroke="none" stroke-width="1.5"/>
<rect x="60" y="206" width="10" height="10" rx="1" fill="#e6ecf4" stroke="none" stroke-width="1.5"/>
<rect x="72" y="206" width="10" height="10" rx="1" fill="#e6ecf4" stroke="none" stroke-width="1.5"/>
<rect x="84" y="206" width="10" height="10" rx="1" fill="#9fb9dc" stroke="none" stroke-width="1.5"/>
<rect x="96" y="206" width="10" height="10" rx="1" fill="#245895" stroke="none" stroke-width="1.5"/>
<rect x="108" y="206" width="10" height="10" rx="1" fill="#9fb9dc" stroke="none" stroke-width="1.5"/>
<rect x="120" y="206" width="10" height="10" rx="1" fill="#e6ecf4" stroke="none" stroke-width="1.5"/>
<rect x="132" y="206" width="10" height="10" rx="1" fill="#e6ecf4" stroke="none" stroke-width="1.5"/>
<rect x="144" y="206" width="10" height="10" rx="1" fill="#e6ecf4" stroke="none" stroke-width="1.5"/>
<rect x="60" y="218" width="10" height="10" rx="1" fill="#e6ecf4" stroke="none" stroke-width="1.5"/>
<rect x="72" y="218" width="10" height="10" rx="1" fill="#e6ecf4" stroke="none" stroke-width="1.5"/>
<rect x="84" y="218" width="10" height="10" rx="1" fill="#e6ecf4" stroke="none" stroke-width="1.5"/>
<rect x="96" y="218" width="10" height="10" rx="1" fill="#9fb9dc" stroke="none" stroke-width="1.5"/>
<rect x="108" y="218" width="10" height="10" rx="1" fill="#245895" stroke="none" stroke-width="1.5"/>
<rect x="120" y="218" width="10" height="10" rx="1" fill="#9fb9dc" stroke="none" stroke-width="1.5"/>
<rect x="132" y="218" width="10" height="10" rx="1" fill="#e6ecf4" stroke="none" stroke-width="1.5"/>
<rect x="144" y="218" width="10" height="10" rx="1" fill="#e6ecf4" stroke="none" stroke-width="1.5"/>
<rect x="60" y="230" width="10" height="10" rx="1" fill="#e6ecf4" stroke="none" stroke-width="1.5"/>
<rect x="72" y="230" width="10" height="10" rx="1" fill="#e6ecf4" stroke="none" stroke-width="1.5"/>
<rect x="84" y="230" width="10" height="10" rx="1" fill="#e6ecf4" stroke="none" stroke-width="1.5"/>
<rect x="96" y="230" width="10" height="10" rx="1" fill="#e6ecf4" stroke="none" stroke-width="1.5"/>
<rect x="108" y="230" width="10" height="10" rx="1" fill="#9fb9dc" stroke="none" stroke-width="1.5"/>
<rect x="120" y="230" width="10" height="10" rx="1" fill="#245895" stroke="none" stroke-width="1.5"/>
<rect x="132" y="230" width="10" height="10" rx="1" fill="#9fb9dc" stroke="none" stroke-width="1.5"/>
<rect x="144" y="230" width="10" height="10" rx="1" fill="#e6ecf4" stroke="none" stroke-width="1.5"/>
<text x="260" y="197" font-size="18" fill="#202831" text-anchor="middle" font-weight="400">Extract attention</text>
<text x="260" y="223" font-size="18" fill="#202831" text-anchor="middle" font-weight="400">Bin into 10 levels</text>
<path d="M210,267 L210,297" fill="none" stroke="#728497" stroke-width="2" marker-end="url(#arrow)"/>
<rect x="40" y="297" width="340" height="66" rx="8" fill="#fff" stroke="#b8c5d4" stroke-width="1.5"/>
<text x="210.0" y="336.65" font-size="19" fill="#202831" text-anchor="middle" font-weight="400">Previous attention states as features</text>
<path d="M210,363 L210,393" fill="none" stroke="#728497" stroke-width="2" marker-end="url(#arrow)"/>
<rect x="40" y="393" width="340" height="113" rx="8" fill="#eaf1fa" stroke="#b8c5d4" stroke-width="1.5"/>
<path d="M105,421 L77,461" fill="none" stroke="#728497" stroke-width="2"/>
<path d="M105,421 L133,461" fill="none" stroke="#728497" stroke-width="2"/>
<circle cx="105" cy="421" r="8" fill="#245895" stroke="none" stroke-width="1.6"/>
<circle cx="77" cy="461" r="8" fill="#245895" stroke="none" stroke-width="1.6"/>
<circle cx="133" cy="461" r="8" fill="#a85b14" stroke="none" stroke-width="1.6"/>
<text x="263" y="432" font-size="18" fill="#245895" text-anchor="middle" font-weight="400">Silas decision trees</text>
<text x="263" y="458" font-size="18" fill="#245895" text-anchor="middle" font-weight="400">Predict high / low</text>
<path d="M210,506 L210,536" fill="none" stroke="#728497" stroke-width="2" marker-end="url(#arrow)"/>
<rect x="40" y="536" width="340" height="72" rx="8" fill="#fff" stroke="#b8c5d4" stroke-width="1.5"/>
<text x="210.0" y="565.15" font-size="19" fill="#202831" text-anchor="middle" font-weight="400">Inspect decision conditions</text>
<text x="210.0" y="592.15" font-size="19" fill="#202831" text-anchor="middle" font-weight="400">and temporal influence scores</text>
<text x="210" y="650" font-size="18" fill="#596674" text-anchor="middle" font-weight="400">Observed: nearby states</text>
<text x="210" y="676" font-size="18" fill="#596674" text-anchor="middle" font-weight="400">carry the strongest influence.</text>
</g></svg>
